<svg xmlns="http://www.w3.org/2000/svg" width="501" height="278" viewBox="0 0 501 278" version="1.1"><path d="M 87.500 34.161 C 81.859 37.263, 82.046 35.475, 82.022 86.527 C 81.998 138.777, 81.741 136.740, 88.716 139.655 C 93.022 141.454, 97.997 140.090, 100.984 136.293 C 102.838 133.936, 103 132.263, 103 115.488 C 103 99.840, 103.232 97.052, 104.631 95.891 C 106.057 94.708, 106.755 95.093, 110.185 98.959 C 116.991 106.628, 124.955 117.717, 131.588 128.760 C 135.114 134.632, 138 139.788, 138 140.218 C 138 140.648, 143.850 141, 151 141 C 160.395 141, 164 140.669, 164 139.808 C 164 138.296, 157.364 127.042, 149.879 115.859 C 143.325 106.067, 135.989 96.864, 128.803 89.417 L 123.897 84.333 142.419 61.917 C 152.606 49.587, 160.954 39.163, 160.970 38.750 C 160.987 38.337, 155.668 38, 149.150 38 L 137.300 38 120.400 59.957 L 103.500 81.913 103 60.372 L 102.500 38.832 99.234 35.916 C 95.752 32.807, 91.200 32.126, 87.500 34.161 M 345.500 34.161 C 339.857 37.264, 340.046 35.443, 340.022 86.850 L 340 134.200 343.400 137.600 C 347.917 142.117, 352.508 142.249, 357.345 138.002 C 360.181 135.512, 360.954 135.239, 361.911 136.393 C 362.545 137.156, 365.390 138.782, 368.234 140.005 C 374.954 142.896, 387.237 142.514, 393.628 139.214 C 409.521 131.011, 416.305 103.927, 408.016 81.773 C 402.027 65.764, 384.714 58.355, 370.200 65.588 C 367.344 67.011, 364.106 69.322, 363.004 70.722 L 361 73.270 361 56.535 L 361 39.800 357.600 36.400 C 353.978 32.778, 349.516 31.952, 345.500 34.161 M 430.353 34.926 C 423.692 38.988, 423.664 49.995, 430.304 54.044 C 438.369 58.961, 449 53.599, 449 44.615 C 449 35.338, 438.568 29.917, 430.353 34.926 M 185.500 64.147 C 182.750 64.655, 178.412 65.749, 175.861 66.579 L 171.222 68.087 173.034 75.134 C 174.031 79.009, 175.063 82.396, 175.327 82.660 C 175.591 82.924, 178.823 82.209, 182.509 81.070 C 190.380 78.639, 200.560 78.371, 205.568 80.464 C 207.991 81.476, 209.541 83.049, 210.590 85.562 C 213.008 91.349, 212.307 92.398, 205.487 93.194 C 190.593 94.934, 182.415 97.823, 176.016 103.605 C 170.941 108.190, 169.305 111.223, 168.456 117.619 C 167.485 124.938, 169.405 130.740, 174.383 135.527 C 179.147 140.109, 184.338 142.002, 192.116 141.994 C 199.101 141.987, 203.470 140.722, 209.319 137.012 C 214.810 133.530, 215 133.481, 215 135.550 C 215 136.402, 215.667 138.390, 216.483 139.967 L 217.966 142.834 226.233 140.620 C 232.243 139.010, 234.408 138.009, 234.165 136.953 C 232.987 131.851, 232.033 116.069, 232.018 101.428 C 231.997 81.205, 230.943 76.891, 224.436 70.384 C 218.847 64.794, 212.714 62.964, 200.068 63.112 C 194.806 63.173, 188.250 63.639, 185.500 64.147 M 257.168 64.853 L 249.836 66.428 250.527 69.464 C 250.907 71.134, 251.426 87.912, 251.679 106.750 L 252.140 141 262.570 141 L 273 141 273.006 118.250 C 273.009 105.211, 273.467 93.859, 274.079 91.656 C 277.150 80.593, 290.624 75.602, 296.432 83.375 C 298.372 85.970, 298.531 87.829, 299 113.321 L 299.500 140.500 309.750 140.785 L 320 141.070 320 113.216 C 320 82.609, 319.449 78.681, 314.126 71.333 C 309.815 65.381, 305.202 63.496, 295 63.519 C 285.456 63.539, 281.978 64.847, 275.844 70.721 L 272.188 74.222 271.023 68.611 C 269.677 62.127, 269.760 62.150, 257.168 64.853 M 434.388 64.700 C 433.226 64.922, 430.976 66.459, 429.388 68.116 L 426.500 71.128 426.208 101.074 C 425.955 127.010, 426.133 131.477, 427.535 134.433 C 431.111 141.968, 441.776 142.696, 446.044 135.696 C 447.860 132.717, 447.993 130.473, 447.996 102.700 C 447.999 78.961, 447.712 72.344, 446.585 70.165 C 444.574 66.276, 439.065 63.808, 434.388 64.700 M 371.619 80.059 C 363.797 82.334, 361 89.563, 361 107.507 C 361 118.827, 361.153 119.790, 363.250 121.701 C 366.787 124.922, 369.531 126, 374.184 125.996 C 382.523 125.989, 387.014 120.953, 389.209 109.149 C 392.448 91.732, 383.330 76.653, 371.619 80.059 M 199.500 107.502 C 187.570 111.720, 186.776 125.367, 198.335 127.535 C 206.837 129.130, 211.060 124.741, 211.777 113.566 L 212.263 106 207.882 106.044 C 205.472 106.068, 201.700 106.724, 199.500 107.502 M 461.455 126.455 C 459.819 128.090, 459.011 130.009, 459.032 132.205 C 459.134 142.780, 473.492 143.788, 475.577 133.366 C 476.045 131.025, 475.588 129.663, 473.500 127.182 C 470.063 123.098, 465.110 122.799, 461.455 126.455 M 462.041 129.343 C 459.968 133.416, 462.226 137.371, 466.881 137.821 L 470.200 138.142 468.350 135.664 C 466.666 133.409, 466.471 133.358, 466.180 135.093 C 465.542 138.901, 464.097 136.874, 463.797 131.750 L 463.489 126.500 462.041 129.343 M 470.523 131.336 C 470.536 133.626, 470.986 135.500, 471.523 135.500 C 473.034 135.500, 473.265 129.465, 471.801 128.251 C 470.768 127.394, 470.505 128.030, 470.523 131.336 M 40.031 162.250 C 40.048 162.938, 41.171 165.300, 42.526 167.500 C 43.881 169.700, 44.992 172.963, 44.995 174.750 C 44.998 176.970, 45.475 178, 46.500 178 C 47.519 178, 48.010 176.958, 48.031 174.750 C 48.048 172.963, 49.171 169.700, 50.526 167.500 C 53.281 163.028, 53.642 161, 51.685 161 C 50.962 161, 49.566 162.686, 48.584 164.747 L 46.797 168.494 44.875 164.747 C 43.044 161.180, 39.965 159.592, 40.031 162.250 M 64.455 163.455 C 59.391 168.518, 62.680 178, 69.500 178 C 76.320 178, 79.609 168.518, 74.545 163.455 C 73.195 162.105, 70.925 161, 69.500 161 C 68.075 161, 65.805 162.105, 64.455 163.455 M 88 167.845 C 88 175.949, 89.712 178.343, 95.134 177.820 C 99.451 177.404, 101.099 174.233, 100.759 167 C 100.566 162.893, 100.120 161.500, 99 161.500 C 97.872 161.500, 97.376 163.110, 97 167.991 C 96.589 173.325, 96.165 174.546, 94.620 174.839 C 91.938 175.349, 91.033 173.318, 91.015 166.750 C 91.003 162.312, 90.658 161, 89.500 161 C 88.313 161, 88 162.427, 88 167.845 M 112.667 161.667 C 112.300 162.033, 112 165.858, 112 170.167 C 112 177.333, 112.170 178, 114 178 C 115.619 178, 116 177.333, 116 174.500 C 116 172.575, 116.421 171, 116.935 171 C 117.450 171, 118.440 172.575, 119.136 174.500 C 119.944 176.734, 121.052 178, 122.201 178 C 124.415 178, 124.465 176.800, 122.415 172.835 C 121.275 170.632, 121.135 169.465, 121.915 168.685 C 123.960 166.640, 123.159 163.011, 120.435 161.975 C 117.476 160.850, 113.636 160.698, 112.667 161.667 M 150.200 162.200 C 148.063 164.337, 148.853 167.832, 152 170.158 C 153.650 171.378, 155 173.018, 155 173.802 C 155 174.817, 154.136 175.100, 152 174.787 C 149.601 174.435, 149 174.712, 149 176.173 C 149 177.587, 149.775 178, 152.429 178 C 159.304 178, 161.070 172.144, 155.289 168.516 C 151.206 165.954, 151.082 164, 155 164 C 157 164, 158 163.500, 158 162.500 C 158 160.648, 151.983 160.417, 150.200 162.200 M 171.455 163.455 C 166.391 168.518, 169.680 178, 176.500 178 C 183.320 178, 186.609 168.518, 181.545 163.455 C 180.195 162.105, 177.925 161, 176.500 161 C 175.075 161, 172.805 162.105, 171.455 163.455 M 195 169.500 L 195 178 200 178 C 203.778 178, 205 177.633, 205 176.500 C 205 175.452, 203.944 175, 201.500 175 L 198 175 198 168 C 198 162.444, 197.690 161, 196.500 161 C 195.284 161, 195 162.611, 195 169.500 M 214 167.204 C 214 175.153, 215.714 178, 220.500 178 C 225.272 178, 227 175.149, 227 167.277 C 227 162.364, 226.674 161, 225.500 161 C 224.379 161, 223.997 162.201, 223.986 165.750 C 223.966 172.867, 223.146 175, 220.429 175 C 218.239 175, 218.073 174.574, 217.796 168.260 C 217.555 162.777, 217.174 161.458, 215.750 161.187 C 214.232 160.898, 214 161.695, 214 167.204 M 237 162.452 C 237 163.437, 237.910 164, 239.500 164 C 241.929 164, 242 164.200, 242 171 C 242 176.556, 242.310 178, 243.500 178 C 244.690 178, 245 176.556, 245 171 C 245 164.140, 245.052 164, 247.583 164 C 249.203 164, 250.013 163.534, 249.754 162.750 C 249.498 161.976, 246.991 161.387, 243.171 161.202 C 238.139 160.960, 237 161.190, 237 162.452 M 260 169.500 C 260 176.389, 260.284 178, 261.500 178 C 262.716 178, 263 176.389, 263 169.500 C 263 162.611, 262.716 161, 261.500 161 C 260.284 161, 260 162.611, 260 169.500 M 276.861 162.912 C 274.989 164.428, 274.500 165.792, 274.500 169.500 C 274.500 174.925, 277.253 178, 282.111 178 C 286.456 178, 289 174.861, 289 169.500 C 289 161.867, 282.505 158.341, 276.861 162.912 M 300.667 161.667 C 300.300 162.033, 300 165.858, 300 170.167 C 300 177.260, 300.184 178, 301.945 178 C 303.556 178, 303.943 177.184, 304.195 173.250 L 304.500 168.500 307.013 172.989 C 308.396 175.458, 310.308 177.628, 311.263 177.812 C 312.803 178.109, 313 177.175, 313 169.573 C 313 162.619, 312.717 161, 311.500 161 C 310.360 161, 309.995 162.260, 309.978 166.250 L 309.956 171.500 306.895 166.250 C 304.041 161.354, 302.277 160.056, 300.667 161.667 M 340 169.500 C 340 176.389, 340.284 178, 341.500 178 C 342.634 178, 343.018 176.717, 343.074 172.750 L 343.147 167.500 344.780 171.750 C 346.840 177.110, 349.255 177.331, 351.245 172.342 L 352.704 168.684 353.392 171.427 C 353.771 172.936, 353.807 175.032, 353.473 176.085 C 353.005 177.558, 353.352 178, 354.973 178 C 356.970 178, 357.066 177.566, 356.790 169.750 C 356.524 162.176, 356.324 161.475, 354.349 161.193 C 352.551 160.937, 351.908 161.758, 350.428 166.193 L 348.658 171.500 346.348 166.250 C 344.660 162.412, 343.496 161, 342.019 161 C 340.152 161, 340 161.639, 340 169.500 M 372.663 161.736 C 371.799 163.135, 367 176.170, 367 177.119 C 367 178.901, 370.204 177.935, 370.710 176 C 371.086 174.565, 372.074 174, 374.210 174 C 376.346 174, 377.335 174.565, 377.710 176 C 378 177.107, 379.074 178, 380.117 178 C 382.467 178, 382.474 178.063, 379.124 169 C 376.576 162.108, 374.132 159.360, 372.663 161.736 M 392.688 161.646 C 392.309 162.024, 392 165.858, 392 170.167 C 392 177.333, 392.170 178, 394 178 C 395.643 178, 396 177.333, 396 174.262 L 396 170.524 398.660 174.262 C 401.671 178.494, 405.950 179.707, 403.910 175.750 C 403.272 174.512, 401.868 172.530, 400.789 171.344 C 398.697 169.044, 399.224 166.719, 402.445 164.045 C 403.300 163.336, 404 162.360, 404 161.878 C 404 160.145, 401.303 161.048, 398.928 163.576 L 396.508 166.152 395.976 163.900 C 395.420 161.544, 393.860 160.474, 392.688 161.646 M 415 169.500 L 415 178 420 178 C 423.778 178, 425 177.633, 425 176.500 C 425 175.452, 423.944 175, 421.500 175 C 418.667 175, 418 174.619, 418 173 C 418 171.444, 418.667 171, 421 171 C 423 171, 424 170.500, 424 169.500 C 424 168.500, 423 168, 421 168 C 418.667 168, 418 167.556, 418 166 C 418 164.444, 418.667 164, 421 164 C 423 164, 424 163.500, 424 162.500 C 424 161.389, 422.833 161, 419.500 161 L 415 161 415 169.500 M 436 169.500 C 436 176.389, 436.284 178, 437.500 178 C 438.548 178, 439 176.944, 439 174.500 C 439 172.575, 439.473 171, 440.051 171 C 440.629 171, 441.760 172.575, 442.564 174.500 C 443.369 176.425, 444.696 178, 445.513 178 C 447.440 178, 447.410 175.555, 445.446 172.557 C 444.412 170.980, 444.245 169.967, 444.946 169.534 C 445.526 169.175, 446 167.574, 446 165.976 C 446 162.638, 443.717 161, 439.066 161 L 436 161 436 169.500 M 65.942 166.651 C 64.449 170.579, 66.045 174.428, 69.327 174.816 C 72.840 175.232, 74.698 171.100, 72.924 166.816 C 71.347 163.008, 67.363 162.914, 65.942 166.651 M 116 166 C 116 167.506, 116.522 168.046, 117.750 167.810 C 118.713 167.624, 119.500 166.810, 119.500 166 C 119.500 165.190, 118.713 164.376, 117.750 164.190 C 116.522 163.954, 116 164.494, 116 166 M 172.942 166.651 C 171.365 170.800, 173.042 174.500, 176.500 174.500 C 178.662 174.500, 179.539 173.884, 180.200 171.901 C 181.507 167.979, 179.644 164, 176.500 164 C 174.662 164, 173.669 164.740, 172.942 166.651 M 279.200 165.200 C 277.534 166.866, 277.696 172.503, 279.452 173.960 C 281.651 175.785, 284.347 174.799, 285.408 171.781 C 287.251 166.540, 282.692 161.708, 279.200 165.200 M 439 166 C 439 167.506, 439.522 168.046, 440.750 167.810 C 441.712 167.624, 442.500 166.810, 442.500 166 C 442.500 165.190, 441.712 164.376, 440.750 164.190 C 439.522 163.954, 439 164.494, 439 166 M 373.675 167.405 C 372.646 170.087, 372.855 171, 374.500 171 C 376.143 171, 376.238 170.465, 375.105 167.573 C 374.404 165.785, 374.301 165.773, 373.675 167.405" stroke="none" fill="#040404" fill-rule="evenodd"/><path d="M 45.500 33.901 C 37.270 37.525, 36.279 48.129, 43.629 53.930 C 47.907 57.307, 55.324 56.441, 59.191 52.113 C 65.489 45.063, 61.305 34.230, 51.968 33.412 C 49.510 33.196, 46.600 33.416, 45.500 33.901 M 46.378 65.434 C 39.998 68.217, 40 68.205, 40 102.646 L 40 133.847 42.497 136.814 C 43.870 138.446, 46.166 140.076, 47.598 140.435 C 51.176 141.333, 56.560 139.374, 58.984 136.293 C 60.908 133.847, 61 132.297, 61 102.288 L 61 70.846 58.077 67.923 C 56.469 66.315, 54.481 65, 53.659 65 C 52.836 65, 51.564 64.791, 50.832 64.536 C 50.099 64.282, 48.095 64.686, 46.378 65.434 M 42.223 201.557 C 39.421 203.519, 39.201 208.967, 41.829 211.345 C 43.514 212.870, 55.670 213, 196.329 213 L 349 213 349 234.878 C 349 258.848, 349.118 259.333, 354.955 259.333 C 357.281 259.333, 362.427 255.078, 382.970 236.167 L 408.135 213 426.068 213 C 442.667 213, 444.149 212.851, 446 211 C 448.791 208.209, 448.532 204.563, 445.365 202.073 C 442.906 200.139, 441.441 200, 423.442 200 L 404.153 200 400.827 202.739 C 398.997 204.245, 389.287 213.058, 379.250 222.325 L 361 239.172 361 221.143 C 361 203.645, 360.934 203.067, 358.777 201.557 C 356.789 200.164, 340.123 200, 200.500 200 C 60.877 200, 44.211 200.164, 42.223 201.557" stroke="none" fill="#e44c1c" fill-rule="evenodd"/></svg>